<svg width="38" height="38" viewBox="0 0 38 38" fill="none" xmlns="http://www.w3.org/2000/svg">
<path d="M18.9842 3.16663C10.2442 3.16663 3.16675 10.26 3.16675 19C3.16675 27.74 10.2442 34.8333 18.9842 34.8333C27.7401 34.8333 34.8334 27.74 34.8334 19C34.8334 10.26 27.7401 3.16663 18.9842 3.16663ZM19.0001 31.6666C12.0017 31.6666 6.33342 25.9983 6.33342 19C6.33342 12.0016 12.0017 6.33329 19.0001 6.33329C25.9984 6.33329 31.6668 12.0016 31.6668 19C31.6668 25.9983 25.9984 31.6666 19.0001 31.6666Z" fill="#C4C4C4"/>
<path d="M19.7917 11.0834H17.4167V20.5834L25.7292 25.5709L26.9167 23.6234L19.7917 19.3959V11.0834Z" fill="#C4C4C4"/>
</svg>
