<svg width="62" height="60" viewBox="0 0 62 60" fill="none" xmlns="http://www.w3.org/2000/svg">
<path d="M45.3088 0H45.1601C39.2435 0 34.0109 3.15075 31.001 7.80006C27.9911 3.15075 22.7585 0 16.8419 0H16.6931C12.2529 0.0425838 8.00867 1.84695 4.88291 5.021C1.75715 8.19504 0.00241043 12.4823 0 16.951C0 22.5002 2.41504 30.3741 7.12418 36.8532C16.0963 49.1988 31.001 60 31.001 60C31.001 60 45.9056 49.2008 54.8758 36.8532C59.5869 30.3741 62 22.5002 62 16.951C61.9976 12.4826 60.2431 8.19568 57.1178 5.0217C53.9924 1.84771 49.7488 0.0431063 45.3088 0V0ZM43.1813 37.8031C42.5075 37.8005 41.8501 37.5929 41.2957 37.2076C40.7412 36.8223 40.3154 36.2772 40.0743 35.644H36.5369C36.304 35.6426 36.0773 35.5679 35.8886 35.4306C35.6998 35.2932 35.5584 35.0999 35.4841 34.8778L34.3975 31.5834L30.9593 43.6736C30.8924 43.9063 30.7522 44.1109 30.5599 44.2566C30.3675 44.4023 30.1334 44.4813 29.8926 44.4817H29.8232C29.572 44.4695 29.3325 44.3709 29.1449 44.2023C28.9572 44.0338 28.8327 43.8056 28.7921 43.5558L25.2489 22.1091L22.6594 34.8C22.6 35.041 22.4621 35.2552 22.2677 35.4082C22.0732 35.5611 21.8335 35.6442 21.5867 35.644H16.6039C16.4546 35.6504 16.3054 35.6263 16.1656 35.5731C16.0257 35.52 15.898 35.4389 15.79 35.3348C15.6821 35.2307 15.5962 35.1057 15.5376 34.9673C15.4789 34.8289 15.4487 34.68 15.4487 34.5296C15.4487 34.3791 15.4789 34.2302 15.5376 34.0918C15.5962 33.9535 15.6821 33.8285 15.79 33.7243C15.898 33.6202 16.0257 33.5392 16.1656 33.486C16.3054 33.4329 16.4546 33.4088 16.6039 33.4151H20.7142L24.3824 16.3524C24.4426 16.1001 24.5881 15.8767 24.7938 15.7204C24.9996 15.5641 25.2529 15.4846 25.5105 15.4954C25.768 15.5062 26.0139 15.6068 26.206 15.7798C26.398 15.9529 26.5244 16.1877 26.5635 16.4442L30.1821 38.3219L33.2633 27.5047C33.3275 27.2769 33.4632 27.0761 33.6501 26.9322C33.837 26.7884 34.0651 26.7092 34.3004 26.7066H34.3222C34.5552 26.7066 34.7822 26.7808 34.971 26.9184C35.1597 27.0559 35.3004 27.25 35.373 27.4728L37.338 33.4211H40.0306C40.2221 32.8358 40.5705 32.3151 41.0374 31.9164C41.5044 31.5178 42.0717 31.2568 42.6767 31.1621C43.2818 31.0675 43.9011 31.1429 44.4662 31.38C45.0314 31.6172 45.5204 32.0069 45.8794 32.5061C46.2384 33.0054 46.4533 33.5947 46.5005 34.2091C46.5477 34.8235 46.4252 35.439 46.1467 35.9878C45.8682 36.5366 45.4445 36.9973 44.9222 37.319C44.4 37.6408 43.7996 37.811 43.1872 37.811L43.1813 37.8031Z" fill="url(#paint0_radial_54_449)"/>
<defs>
<radialGradient id="paint0_radial_54_449" cx="0" cy="0" r="1" gradientUnits="userSpaceOnUse" gradientTransform="translate(31 30) rotate(90) scale(30 31)">
<stop stop-color="#0081F7"/>
<stop offset="1" stop-color="#046FD2"/>
</radialGradient>
</defs>
</svg>
